<svg width="120" height="120" viewBox="0 0 120 120" fill="none" xmlns="http://www.w3.org/2000/svg">
<path d="M118 33C119.105 33 120.003 33.8961 119.967 35.0001C119.461 50.1871 113.206 64.6465 102.426 75.4264C91.1742 86.6786 75.913 93 60 93C44.087 93 28.8258 86.6786 17.5736 75.4264C6.79371 64.6465 0.539349 50.1871 0.0333077 35.0001C-0.00347692 33.8961 0.895431 33 2 33L28 33C29.1046 33 29.9931 33.8966 30.0666 34.9987C30.5488 42.2253 33.6337 49.0601 38.7868 54.2132C44.4129 59.8393 52.0435 63 60 63C67.9565 63 75.5871 59.8393 81.2132 54.2132C86.3663 49.0601 89.4512 42.2253 89.9334 34.9987C90.0069 33.8966 90.8954 33 92 33L118 33Z" fill="white"/>
</svg>
